<svg xmlns="http://www.w3.org/2000/svg" viewBox="0 0 980 980" fill="none" shape-rendering="auto"><metadata xmlns:rdf="http://www.w3.org/1999/02/22-rdf-syntax-ns#" xmlns:xsi="http://www.w3.org/2001/XMLSchema-instance" xmlns:dc="http://purl.org/dc/elements/1.1/" xmlns:dcterms="http://purl.org/dc/terms/"><rdf:RDF><rdf:Description><dc:title>Lorelei</dc:title><dc:creator>Lisa Wischofsky</dc:creator><dc:source xsi:type="dcterms:URI">https://www.figma.com/community/file/1198749693280469639</dc:source><dcterms:license xsi:type="dcterms:URI">https://creativecommons.org/publicdomain/zero/1.0/</dcterms:license><dc:rights>Remix of „Lorelei” (https://www.figma.com/community/file/1198749693280469639) by „Lisa Wischofsky”, licensed under „CC0 1.0” (https://creativecommons.org/publicdomain/zero/1.0/)</dc:rights></rdf:Description></rdf:RDF></metadata><mask id="viewboxMask"><rect width="980" height="980" rx="0" ry="0" x="0" y="0" fill="#fff" /></mask><g mask="url(#viewboxMask)"><rect fill="#c0aede" width="980" height="980" x="0" y="0" /><g transform="translate(10 -60)"><path d="M534 142c7-1 14-1 21 1s14 6 18 12c7 8 9 18 9 28l31-16c20-9 43-15 65-14 12 1 24 4 34 11 9 6 16 17 16 28 0 8-4 16-8 23-9 15-22 28-36 38 8 6 14 15 14 26 1 7-2 13-5 19 8 14 16 29 18 45 2 12-2 24-8 35-6 10-15 18-26 21-2 0-3-2-4-4l-4-18c-4-19-9-37-15-56-9 1-17 1-26-1-8-2-16-4-23-9a85 85 0 0 1-62 30c-14 0-29-7-41-15-10-7-19-14-23-26l-25 14-41 17-33 14c-10 4-19 10-27 18-6 6-11 13-14 21l-1 13c-3 8-7 13-11 20-8 10-13 23-15 36-3 16-2 34 2 50 2 11 6 21 7 32 4 3 9 6 12 10l-17-1-13-3-2 2c9 3 19 5 27 11 3 3 6 5 8 9-8 0-15 0-22-2-9-2-17-4-25-8-4 2-8 7-13 7-6-2-10-8-14-12-5-4-9-10-12-15l-7-14-10-26a220 220 0 0 1 5-119c7-22 15-44 27-64 15-24 38-44 63-57 12-6 25-12 39-14 1-12 7-24 17-32a74 74 0 0 1 81-4c4-15 12-27 23-37 12-13 29-22 46-24Z" fill="#000000"/><path d="M495 231a231 231 0 0 1 219 204c1 10 2 21 0 30-1 4-1 7-4 8-3-10-3-19-4-29a220 220 0 0 0-239-205c-42 4-83 19-117 44l-17 13a221 221 0 0 0-78 164c0 23 7 43 15 64h17c3 1 4 4 2 6l-6 2c-15 1-31 7-42 17-8 9-14 19-16 31-3 15 0 32 8 45 9 15 24 27 40 33 14 5 29 7 43 5 4-1 8-2 11 0v3c-5 5-11 6-18 7-16 3-33-1-47-8a86 86 0 0 1-47-58c-4-18-1-37 9-53 8-12 20-21 34-26-7-14-10-28-12-43-2-18-2-35 0-53 1-13 4-25 8-38a227 227 0 0 1 99-122c41-28 92-43 142-41Z" fill="#000"/><path d="M535 244a220 220 0 0 1 171 200c1 10 1 19 4 29l-2 18v22c-3 4-4 9-4 14-2 8-2 15-2 23v65c0 21-3 42-11 61-4 13-10 24-18 35-10 12-21 22-34 31-11 9-24 17-37 24l-22 14-12 8 9-2c-3 11-3 24-4 36 0 8 1 16 7 22a235 235 0 0 0 81 45c6 7 11 16 13 25 1 9 0 18-4 27-6 10-14 18-23 24-13 10-28 17-43 22a417 417 0 0 1-217 11c-16-3-33-9-48-17-10-5-21-12-28-21-6-6-10-14-11-22-2-10 0-21 5-30 21-13 39-32 49-54 5-11 7-22 8-34 1-16 0-32-1-47-2-20-3-41-8-61 11 12 23 24 37 32 17 11 36 20 55 26 20 7 41 13 63 18l25 3c3 0 6 0 8-2 2-1 1-2 2-3l-17-2c-29-7-58-16-87-27-18-7-36-15-53-27-18-13-33-30-47-47l-11-16-1-1v-3c-3-2-7-1-11 0-14 2-29 0-43-5-16-6-31-18-40-33-8-13-11-30-8-45 2-12 8-22 16-31 11-10 27-16 42-17l6-2c2-2 1-5-2-6h-17c-8-21-15-41-15-64-1-14 2-27 5-41a221 221 0 0 1 73-123l17-13a230 230 0 0 1 185-39Z" fill="#ffffff"/><path d="M708 513c3 3 2 7 3 12v29c0 26 2 54 0 80-3 31-14 63-36 86-25 28-57 51-93 64l2 7v35c1 6 4 10 8 14l26 19 32 20 24 12c2 0 3 1 5 3l-19-5c-19-6-37-14-54-25-9-5-19-12-26-20-6-6-7-14-7-22 1-12 1-25 4-36l-9 2 12-8 22-14c13-7 26-15 37-24 13-9 24-19 34-31a178 178 0 0 0 29-96v-65c0-8 0-15 2-23 0-5 1-10 4-14ZM278 574c5 5 4 14 0 19l-3 7c1 3 5 5 7 6 6 3 12 7 19 9 0 4-3 5-7 5-6-1-13-3-18-6-7-3-13-8-13-16 0-6 5-9 6-14 2-4 0-7-1-11 4-1 7-2 10 1ZM328 667l11 16c14 17 29 34 47 47 17 12 35 20 53 27a714 714 0 0 0 104 29c-1 1 0 2-2 3-2 2-5 2-8 2l-25-3a478 478 0 0 1-118-44c-14-8-26-20-37-32 5 20 6 41 8 61 1 15 2 31 1 47-1 12-3 23-8 34-10 22-28 41-49 54l-14 8c2-4 6-6 9-9 13-11 24-25 34-39 6-10 12-21 14-33 4-19 3-39 3-58l-3-59 2-10c-10-11-19-26-22-41Z" fill="#000"/><path d="M681 473c6 2 12 7 15 13 2 3 2 6 0 9-2 4-8 6-12 3-4-2-6-6-9-9-7-3-13-2-19 0 3 3 6 6 7 10 4 12 3 25-2 36l10-5c0 4 0 7-2 11-5 6-13 10-20 11-9 1-17 2-25-2-4-3-5-7-5-11l-2-10c0-7 3-13 6-19 7-14 18-26 31-33 8-4 18-6 27-4ZM456 484c27 1 53 17 65 41 2 3 3 6 1 10-3-1-4-3-6-6-6-9-13-17-22-23-10-6-22-9-34-9 6 10 9 21 8 32-1 9-4 19-12 26 4 1 7 2 9 4-6 3-13 3-20 1-9-2-17-6-25-11-8-6-16-13-20-23l-4-8c-2-4-1-8 2-11l10-9c14-10 31-15 48-14Z" fill="#000000"/><path d="M533 358c6 2 9 8 10 14 0 8-3 16-7 22-3 3-7 4-10 1-4-3-2-10-2-15l-13 10c-6 4-13 7-20 9-9 4-19 5-30 8l-25 8c-8 3-15 8-22 12l-25 17c-5 3-8 7-11 12-2-4-1-8 1-11a401 401 0 0 1 35-29c16-13 36-21 55-28l28-11c8-4 14-11 21-16 5-2 10-4 15-3ZM626 376l6 7c17 7 33 7 49 16 4 2 7 6 9 10s1 8-2 12l-16-6c-12-6-24-7-36-11-7-3-14-4-19-10-4 8-4 17-8 26-1 1-1 4-4 3l-1-8 2-11c1-8 4-16 7-23 2-6 8-8 13-5Z" fill="#000000"/><path d="M603 613v1c-4 8-11 15-20 18-3 1-7 1-9-1v-4c7-5 16-9 24-12l5-2Z" fill="#000000"/><path fill-rule="evenodd" clip-rule="evenodd" d="M622 659c1-4-5-4-7-4-15 0-30 3-45 7a441 441 0 0 0-84 36c-6 3-11 7-15 13l-2 4 5-1c5-5 12-8 18-12 0 7 0 14 4 20 3 6 9 10 15 11 9 1 19-3 26-9 11-8 18-20 24-32 3-6 3-11 3-17 16-6 33-9 49-12h1c3 0 6-1 8-4Zm-84 48c6-8 11-18 14-29l-27 10c0 7-4 14-7 21l-1-6v-1l2-12-23 10v1c2 6 4 14 9 18 4 5 10 5 16 3 7-3 13-9 17-15Z" fill="#000000"/><path d="M690 460h30c9 1 17 1 26 4 3 1 5 4 4 8-4 5-10 6-16 7v29c-2 14-3 29-8 43-4 11-15 19-25 23-8 3-17 5-25 6-11 1-22-1-33-2-6-1-12-1-17-4-6-4-12-10-15-17-2-6-5-12-6-19-1-10-2-21 0-31-12-2-24-4-36-1l-4 5-1 11c-1 12-2 25-6 36-3 9-9 16-16 22l-15 8c-24 7-48 12-73 11-16-1-33-4-47-12-13-7-25-18-32-31l-4-13-1-23v-21c-7-1-13 0-19-4-3-2-4-7-1-10 3-4 9-5 14-7 15-6 29-8 45-11l19-2c18-2 36-3 54-2 19 0 37 1 56 4 8 1 15 5 22 9l10 11 24 3 12 1 2-9 7-8c9-5 19-7 28-10l47-4Z" fill="#000000"/><path d="M707 480c6 2 13 8 13 15 1 4-3 8-7 8-6-1-9-7-12-11-2-2-4-2-4-5 0-5 6-8 10-7ZM524 487c8 1 15 5 20 11 3 4 4 10 2 14s-7 6-12 4c-3-2-4-5-6-8-2-2-4-3-7-3l-12-5c-2-2-2-5 0-7 3-5 9-7 15-6Z" fill="#fff"/><path d="M534 142c7-1 14-1 21 1s14 6 18 12c7 8 9 18 9 28l31-16c20-9 42-14 64-14 12 1 25 4 35 11 9 6 16 17 16 28 0 8-4 16-8 23-9 15-22 28-36 38 9 7 15 18 14 30-1 8-6 17-11 23-7 8-17 12-27 14a76 76 0 0 1-55-9c-7 9-15 16-25 21-13 7-27 11-42 9-17-3-32-11-45-22-6-5-11-11-14-19l-23 13-44 19c-15 5-30 11-43 19-12 7-24 18-29 31-3 6 0 13-3 18-3 7-7 11-11 17-6 10-11 22-14 33-3 18-2 36 2 53 2 11 6 21 7 32 4 3 9 6 12 10-11 0-21-2-31-4a206 206 0 0 1-53-16c-3 0-4-3-6-5l-9-24c-6-21-6-42-6-64a265 265 0 0 1 37-122c15-24 38-44 63-57 12-6 25-12 39-14 1-13 7-24 18-32 12-10 28-14 43-14 13-1 25 4 37 10 3-14 11-26 21-35 12-14 30-24 48-26ZM289 541c9 1 18 4 27 7 6 2 13 6 18 11l2 4c-9 1-18-1-26-3s-17-5-24-10c-2-1-5-3-4-6s4-3 7-3Z" fill="#000000"/></g><g transform="translate(10 -60)"></g></g></svg>