<svg xmlns="http://www.w3.org/2000/svg" viewBox="0 0 980 980" fill="none" shape-rendering="auto"><metadata xmlns:rdf="http://www.w3.org/1999/02/22-rdf-syntax-ns#" xmlns:xsi="http://www.w3.org/2001/XMLSchema-instance" xmlns:dc="http://purl.org/dc/elements/1.1/" xmlns:dcterms="http://purl.org/dc/terms/"><rdf:RDF><rdf:Description><dc:title>Lorelei</dc:title><dc:creator>Lisa Wischofsky</dc:creator><dc:source xsi:type="dcterms:URI">https://www.figma.com/community/file/1198749693280469639</dc:source><dcterms:license xsi:type="dcterms:URI">https://creativecommons.org/publicdomain/zero/1.0/</dcterms:license><dc:rights>Remix of „Lorelei” (https://www.figma.com/community/file/1198749693280469639) by „Lisa Wischofsky”, licensed under „CC0 1.0” (https://creativecommons.org/publicdomain/zero/1.0/)</dc:rights></rdf:Description></rdf:RDF></metadata><mask id="viewboxMask"><rect width="980" height="980" rx="0" ry="0" x="0" y="0" fill="#fff" /></mask><g mask="url(#viewboxMask)"><rect fill="#c0aede" width="980" height="980" x="0" y="0" /><g transform="translate(10 -60)"><path d="M663 169c3 1 4 4 5 6l1 15c0 17-6 34-15 49 12-4 25-6 38-5 14 2 29 6 40 15 4 5 10 11 9 18l-4-2-17-10c-10-5-22-6-34-7-10 1-20 2-29 5 6 1 11 4 17 7 23 14 44 35 53 61 5 13 6 27 2 41-1 1-2 3-1 5 7 19 9 39 8 59-1 17-5 34-13 49-4 9-11 17-18 23-5 4-12 7-19 5-7-3-12-10-15-18-4-8-4-18-4-27 1-10 2-20 5-29-7 4-15 9-23 9l8-9c6-6 11-13 15-21 3-11 3-22 2-32-4-25-15-48-32-66a128 128 0 0 1-4 80c-5 13-14 25-25 35-7 8-18 16-29 18-2 0-6 0-6-2 3-7 8-14 10-22 4-12 4-25 3-38-1-18-4-35-9-51l-4-11v17c-1 16-5 32-11 47a97 97 0 0 1-58 49c-4 1-9 3-13-1l11-7c8-6 16-11 23-18s12-16 17-24c8-17 13-35 13-54-2 11-7 22-11 32-9 17-21 33-35 47-14 15-31 28-50 35-5 2-11 4-17 3l-3-3c0-7 3-13 5-19 3-16 6-32 6-48a170 170 0 0 1-59 67c-14 11-30 19-47 25-4 24-6 48-4 72 3 26 12 51 30 71 1 2 3 3 3 6-5-1-8-4-11-7a97 97 0 0 1-30-47c-1 16 1 31 1 47l-1 5c-9 1-18-3-26-7l-29-16c-12-10-24-23-31-38-8-17-17-34-23-52-11-32-17-65-12-99 4-26 13-51 28-72 20-26 45-48 74-64a351 351 0 0 1 288-27c22-10 41-29 51-51l6-19Z" fill="#000000"/><path d="M528 244c41 6 80 22 113 47 28 21 50 49 65 81 13 28 20 60 19 91-1 15-3 30-8 44h-2l1-21c1-30-2-59-13-87-10-30-28-57-50-79-42-40-98-62-156-63a243 243 0 0 0-196 94 207 207 0 0 0-40 139l2 25c8 0 19 0 25 7l-3 3-17 1c-12 1-24 5-33 13a64 64 0 0 0-17 39c-5 32 12 65 39 83 16 10 36 15 55 9 4-2 9-5 14-3 3 1 4 4 5 7a251 251 0 0 0 90 100c8 7 18 13 28 18 18 8 38 14 57 19l32 8c5 1 9 1 13 3l-4 1c-25 2-48-3-72-10-12-3-23-7-34-12a306 306 0 0 1-84-63l2 28c1 17 0 35-6 52-4 12-11 24-19 34-10 10-22 19-34 26-10 7-21 14-32 18l-16 5 9-9 31-20 22-17a95 95 0 0 0 32-56c2-14 2-28 2-43v-27c-10-14-22-29-27-46-17 8-38 7-55-1-17-7-32-19-43-33-12-17-19-36-21-56s2-40 15-56c9-10 22-18 35-21-4-14-6-29-6-44a234 234 0 0 1 83-173 249 249 0 0 1 199-55Z" fill="#000"/><path d="M653 320c22 22 40 49 50 79 11 28 14 57 13 87l-1 21-5 15-2 13 2 56c0 21 1 42-1 63l-3 47c-2 16-7 31-14 45-11 18-26 33-44 44-13 8-27 12-41 16l-38 11-17 3c0 1 1 2 3 2 8 5 17 5 26 4-3 7-4 14-2 22 3 7 11 11 17 14 12 6 24 7 36 9 7 6 14 14 16 24 2 8 2 16-2 23-5 10-14 18-24 23-13 8-27 14-42 18a468 468 0 0 1-222-1c-17-4-33-9-48-17-12-6-23-13-32-22-5-7-9-14-10-23 11-4 22-11 32-18 12-7 24-16 34-26 8-10 15-22 19-34 6-17 7-35 6-52l-2-28 22 23c19 15 40 30 62 40 11 5 22 9 34 12 24 7 47 12 72 10l4-1c-4-2-8-2-13-3l-32-8c-19-5-39-11-57-19l-29-17c-11-9-23-17-33-27a251 251 0 0 1-56-74c-1-3-2-6-5-7-5-2-10 1-14 3-19 6-39 1-55-9a88 88 0 0 1-39-83c1-14 7-28 17-39 9-8 21-12 33-13l17-1 3-3c-6-7-17-7-25-7l-2-25a207 207 0 0 1 40-139 243 243 0 0 1 196-94c58 1 114 23 156 63Z" fill="#ffffff"/><path d="M710 522c3 0 3 4 4 6 3 11 4 23 5 34l2 21c1 22 2 43 1 65-1 21-1 44-5 65a136 136 0 0 1-80 99c-15 7-31 11-48 13v15c1 3 3 4 5 6 12 6 23 8 36 11 12 3 24 5 36 11-3 3-7 4-11 4-7 1-15-1-23-1-12-2-24-3-36-9-6-3-14-7-17-14-2-8-1-15 2-22-9 1-18 1-26-4-2 0-3-1-3-2l17-3 38-11c14-4 28-8 41-16 18-11 33-26 44-44 7-14 12-29 14-45l3-47c2-21 1-42 1-63l-2-56 2-13ZM252 549c8 0 17 1 23 7 5 4 10 9 12 15 1 3 0 6-2 8l-13 8c-7 6-7 19 0 25 6 5 14 8 21 11 2 0 5 1 6 3-1 2-3 3-5 3-10 0-20-3-28-9-5-3-8-8-9-13-2-8-2-17 4-24 4-6 11-9 18-12-4-5-7-11-14-13-7-3-15-3-22-5l9-4Z" fill="#000"/><path d="m661 483 13 7 10 10c5 3 11 2 17 2-3 6-10 6-16 6-11 1-20-4-30-4l6 5c4 4 5 11 5 16-1 4-2 8-5 11-6 9-21 10-27 1-5-6-5-13-1-20-6 6-11 11-15 18-2 1-5 5-7 2-2-4 0-9 2-14 3-7 7-15 13-21 7-7 14-13 24-15l-4-2c4-3 10-3 15-2ZM453 487l-6 5c-6 3-11 7-15 11 8-3 15-6 23-7 13-3 26-1 37 5 9 3 16 8 22 15 5 6 9 13 9 21 0 2-1 4-4 4l-7-7-9-6c0 5-2 11-5 15-4 8-13 12-22 10-9-1-16-9-17-18-2-8 1-16 6-22-13 0-22 5-32 11-10 5-20 5-31 4-5 0-9-1-13-3l-2-2c7-1 15-2 21-5l5-4c6-16 24-26 40-27Z" fill="#000000"/><path d="M505 385c8 1 16 2 23 6 5 4 8 9 10 14l-2 2c-2 1-4-1-6-2-9-6-21-7-32-7-9 0-18 2-27 6-8 3-17 5-24 9l-19 7c-13 5-27 5-40 10-7 3-12 9-18 13l-9 9c1-8 5-16 10-22l13-13c7-6 17-9 26-11 10-2 19-6 29-9l19-5c8-2 15-5 23-6l24-1ZM671 399c7 1 14 4 22 4v3c-7 6-15 9-24 10-12 2-26-1-37 3l-5 3c-9 10-14 22-20 34-2-7 3-15 5-22s7-12 9-19c4-9 14-16 24-16h26Z" fill="#000000"/><path d="M603 613v1c-4 8-11 15-20 18-3 1-7 1-9-1v-4c7-5 16-9 24-12l5-2Z" fill="#000000"/><path fill-rule="evenodd" clip-rule="evenodd" d="M654 667c2-4 0-9-4-10-8-2-16-1-24-1l-57 6a445 445 0 0 1-56 5l-21 1a255 255 0 0 1-34-1c-4-1-8-1-12 1h1c0 2 1 3 3 3 8 3 16 4 25 5 1 4 3 7 7 9l11 7a503 503 0 0 1 5 3l23 10a175 175 0 0 0 31 8c7 2 14 3 22 2l21-5c6-2 12-5 17-9a129 129 0 0 0 26-23l8-8c3 0 6 0 8-3Zm-30 9 8-9a207 207 0 0 0-78 4l-4 1c-22 3-45 6-67 5l5 2 20 8c17 8 35 13 53 17 15 2 30-2 43-8 8-5 14-12 20-20Z" fill="#000000"/><path d="m663 170 4 3c2 5 2 11 2 16 0 18-6 35-15 50 13-4 26-6 40-4 13 2 28 6 38 16 5 4 10 10 9 16l-6-3c-7-5-14-9-22-11-19-6-38-5-56 0l17 8c23 13 42 32 52 56 5 13 7 26 4 39s-9 26-17 36a151 151 0 0 1-51 42c-4 3-9 5-14 5l10-12c9-7 15-18 16-29 2-13 0-26-4-38-5-19-15-35-28-50 8 27 6 56-4 81-6 14-15 26-26 36-7 7-16 13-26 16-3 0-6 1-8-1l7-13c4-9 6-18 6-27 2-22-2-44-7-65l-6-18c1 20-1 39-8 57a94 94 0 0 1-61 56c-4 1-9 3-13-1 6-4 12-7 17-12 9-6 17-13 24-21l11-18c8-16 12-34 12-52-2 12-7 23-12 34-11 19-24 36-40 51-14 14-30 25-49 31-4 1-7 2-11 1l-4-2c0-7 3-13 4-19 4-16 7-32 7-48a181 181 0 0 1-56 65c-16 11-32 20-50 27a253 253 0 0 0-1 89c4 20 14 39 27 54l4 5c-6 0-9-4-13-7a97 97 0 0 1-29-46c-1 12 0 24 1 37 0 5 1 10-1 15l-4-3-11-7c-10-7-19-14-27-23-11-12-19-27-23-43l-3-6c-14-13-27-28-36-45-10-19-16-39-17-60-2-32 7-63 24-90 19-31 48-55 79-73a354 354 0 0 1 280-28c3 1 6 4 10 2a102 102 0 0 0 52-63l2-6Z" fill="#000000"/></g><g transform="translate(10 -60)"></g></g></svg>