<svg xmlns="http://www.w3.org/2000/svg" viewBox="0 0 100 100" fill="none" shape-rendering="auto"><metadata xmlns:rdf="http://www.w3.org/1999/02/22-rdf-syntax-ns#" xmlns:xsi="http://www.w3.org/2001/XMLSchema-instance" xmlns:dc="http://purl.org/dc/elements/1.1/" xmlns:dcterms="http://purl.org/dc/terms/"><rdf:RDF><rdf:Description><dc:title>Thumbs</dc:title><dc:creator>DiceBear</dc:creator><dc:source xsi:type="dcterms:URI">https://www.dicebear.com</dc:source><dcterms:license xsi:type="dcterms:URI">https://creativecommons.org/publicdomain/zero/1.0/</dcterms:license><dc:rights>„Thumbs” (https://www.dicebear.com) by „DiceBear”, licensed under „CC0 1.0” (https://creativecommons.org/publicdomain/zero/1.0/)</dc:rights></rdf:Description></rdf:RDF></metadata><mask id="viewboxMask"><rect width="100" height="100" rx="0" ry="0" x="0" y="0" fill="#fff" /></mask><g mask="url(#viewboxMask)"><rect fill="#d1d4f9" width="100" height="100" x="0" y="0" /><g transform="translate(-3, 1) rotate(-16 50 70)"><path d="M95 53.33C95 29.4 74.85 10 50 10S5 29.4 5 53.33V140h90V53.33Z" fill="#1c799f"/><g transform="translate(29 33)"><g transform="translate(-12, -10) rotate(3 21 21)"><g transform="translate(0 2)"><path d="M8.5 10c-3.88 0-7.11-4.23-6.4-4.85.71-.62 2.63 1.3 6.4 1.3 3.77 0 5.69-2 6.4-1.3S12.38 10 8.5 10ZM33.5 10c-3.88 0-7.11-4.23-6.4-4.85.71-.62 2.63 1.3 6.4 1.3 3.77 0 5.69-2 6.4-1.3S37.38 10 33.5 10Z" fill="#ffffff"/></g><g transform="translate(6 26)"><path d="M15 11C4.52 11 2.42 2.82 3.12 2.14 3.82 1.46 8.02 3.5 15 3.5c6.99 0 11.18-2.04 11.88-1.36.7.68-1.4 8.86-11.88 8.86Z" fill="#ffffff"/></g></g></g></g></g></svg>